<svg width="40" height="40" viewBox="0 0 40 40" fill="none" xmlns="http://www.w3.org/2000/svg">
<path d="M34.9203 21.0406H29.7875L28.8031 19.775V21.0406H23.2625C22.1375 21.0406 21.2234 21.9547 21.2234 23.0797V34.7375C21.2234 35.8625 22.1375 36.7766 23.2625 36.7766H34.9203C36.0453 36.7766 36.9594 35.8625 36.9594 34.7375V23.0938C36.9594 21.9547 36.0453 21.0406 34.9203 21.0406ZM34.0484 26.9047H32.1781C32.0094 27.6922 31.4891 29.1688 30.0547 30.5891C30.8141 31.1235 31.7563 31.6156 32.9375 32.0094L33.261 32.1219L32.8953 33.261L32.5719 33.1485C31.1234 32.6703 29.9985 32.0657 29.1125 31.4047C28.2266 32.0657 27.1016 32.6703 25.6531 33.1485L25.3297 33.261L24.95 32.1219L25.2735 32.0094C26.3703 31.6438 27.3406 31.1656 28.1703 30.5891C26.7219 29.1688 26.2156 27.6922 26.0328 26.9047H24.2188V25.7094H28.5359V24.0781H29.7313V25.7094H34.0484V26.9047V26.9047Z" fill="#1296DB"/>
<path d="M13.7703 8.67969L15.7672 13.9672H11.7734L13.7703 8.67969Z" fill="#1296DB"/>
<path d="M22.2641 3.22345H5.27656C4.03906 3.22345 3.04062 4.22189 3.04062 5.45939V22.4469C3.04062 23.6844 4.03906 24.6828 5.27656 24.6828H19.6203V23.2906C19.6203 21.1813 21.3359 19.4516 23.4594 19.4516H24.5V5.45939C24.5 4.22189 23.5016 3.22345 22.2641 3.22345V3.22345ZM18.2141 20.436L16.2312 15.1766H11.3234L9.32656 20.436H8.04687L13.2922 6.55626H14.2484L19.4937 20.436H18.2141Z" fill="#1296DB"/>
<path d="M27.2703 26.9047H30.9406C30.8281 27.3125 30.6172 27.8609 30.2234 28.4797C29.9141 28.9578 29.5485 29.4078 29.1125 29.8156C27.9594 28.7187 27.4672 27.5937 27.2703 26.9047Z" fill="#1296DB"/>
<path d="M19.8453 20.675H18.0453L16.0625 15.4015H11.4781L9.4953 20.6609H7.6953L13.1234 6.3031H14.4031L19.8453 20.675V20.675ZM18.3828 20.1968H19.1562L14.0797 6.78123H13.4609L8.39843 20.1828H9.17186L11.1547 14.9234H16.4L18.3828 20.1968V20.1968ZM16.1187 14.2062H11.4219L13.7703 7.9906L16.1187 14.2062ZM12.1109 13.7281H15.4156L13.7703 9.35466L12.1109 13.7281ZM33.0359 33.5562L32.4875 33.3734C31.1937 32.9515 30.0547 32.389 29.0984 31.7C28.1422 32.389 26.9891 32.9515 25.7094 33.3734L25.1609 33.5562L24.6406 31.9672L25.189 31.7844C26.1594 31.4609 27.0312 31.0531 27.7766 30.5609C26.5391 29.2672 26.0328 27.9453 25.8359 27.1578H23.9937V25.4843H28.2969V23.8531H29.9703V25.4843H34.2875V27.1578H32.375C32.1781 27.9453 31.6719 29.2672 30.4344 30.5609C31.1797 31.0531 32.0516 31.4609 33.0219 31.7844L33.5703 31.9672L33.0359 33.5562ZM25.2312 32.2625L25.4562 32.9515L25.5547 32.9234C26.8625 32.5015 28.0015 31.925 28.9578 31.2078L29.0984 31.0953L29.239 31.2078C30.1953 31.9109 31.3344 32.4875 32.6422 32.9234L32.7406 32.9515L32.9656 32.2625L32.8672 32.2343C31.7422 31.8687 30.7578 31.3765 29.914 30.7859L29.675 30.6172L29.8859 30.4203C31.2922 29.0422 31.7844 27.5937 31.9531 26.8625L31.9953 26.6797H33.8094V25.9625H29.4922V24.3312H28.775V25.9625H24.4578V26.6797H26.2016L26.2437 26.8625C26.4125 27.5937 26.8906 29.0422 28.3109 30.4203L28.5219 30.6172L28.2828 30.7859C27.439 31.3765 26.4406 31.8687 25.3297 32.2343L25.2312 32.2625V32.2625ZM29.0984 30.139L28.9297 29.9843C27.7765 28.8734 27.2562 27.7344 27.0312 26.975L26.9328 26.6656H31.25L31.1656 26.975C31.0109 27.5234 30.7437 28.0859 30.4203 28.6062C30.1109 29.0984 29.7172 29.5625 29.2672 29.9843L29.0984 30.139V30.139ZM27.5937 27.1437C27.8328 27.7906 28.2687 28.6343 29.0984 29.4781C29.45 29.1265 29.7594 28.7468 29.9984 28.3531C30.2797 27.9031 30.4766 27.4812 30.5891 27.1578H27.5937V27.1437ZM17.6516 35.5953H17.1734V35.1172H17.6516V35.5953ZM16.6953 35.5953H16.2172V35.1172H16.6953V35.5953ZM15.739 35.5953H15.2609V35.1172H15.739V35.5953ZM14.7687 35.5953H14.2906V35.1172H14.7687V35.5953ZM13.8125 35.5953H13.3344V35.1172H13.8125V35.5953ZM12.8562 35.5953H12.3781V35.1172H12.8562V35.5953ZM11.8859 35.5953H11.4078V35.1172H11.8859V35.5953ZM10.9297 35.5953H10.4516V35.1172H10.9297V35.5953ZM9.97343 35.5953H9.4953V35.1172H9.97343V35.5953ZM9.00311 35.5953H8.83436C8.72186 35.5953 8.60936 35.5953 8.51093 35.5812L8.55311 35.1031C8.65155 35.1172 8.73593 35.1172 8.83436 35.1172H9.00311V35.5953ZM7.99061 35.4968C7.82186 35.4547 7.65311 35.3984 7.49843 35.3281L7.6953 34.8922C7.83593 34.9484 7.97655 35.0047 8.11718 35.0328L7.99061 35.4968V35.4968ZM7.04843 35.075C6.9078 34.9765 6.76718 34.8781 6.64061 34.7656L6.96405 34.414C7.07655 34.5125 7.18905 34.5968 7.31561 34.6812L7.04843 35.075V35.075ZM6.28905 34.3859C6.17655 34.2453 6.07811 34.1047 5.99374 33.964L6.41561 33.725C6.48593 33.8515 6.5703 33.9781 6.66874 34.0906L6.28905 34.3859V34.3859ZM5.76874 33.4859C5.71249 33.3312 5.65624 33.1625 5.62811 32.9937L6.09218 32.8953C6.1203 33.0359 6.16249 33.1765 6.21874 33.3172L5.76874 33.4859ZM5.5578 32.4734V31.9812H6.03593V32.4453L5.5578 32.4734ZM6.03593 31.5031H5.5578V31.025H6.03593V31.5031ZM6.03593 30.5468H5.5578V30.0687H6.03593V30.5468ZM6.03593 29.5906H5.5578V29.1125H6.03593V29.5906ZM6.03593 28.6203H5.5578V28.1422H6.03593V28.6203ZM6.03593 27.664H5.5578V27.1859H6.03593V27.664ZM34.7656 18.5094H34.2875V18.0312H34.7656V18.5094ZM34.7656 17.5531H34.2875V17.075H34.7656V17.5531ZM34.7656 16.5828H34.2875V16.1047H34.7656V16.5828ZM34.7656 15.6265H34.2875V15.1484H34.7656V15.6265ZM34.7656 14.6703H34.2875V14.1922H34.7656V14.6703ZM34.7656 13.7H34.2875V13.2219H34.7656V13.7ZM34.7656 12.7437H34.2875V12.2656H34.7656V12.7437ZM34.7656 11.7875H34.2875V11.3094H34.7656V11.7875ZM34.7656 10.8172H34.2875V10.339H34.7656V10.8172ZM34.7656 9.86091H34.2875V9.59373V9.39685L34.7656 9.36873C34.7656 9.43904 34.7797 9.52341 34.7797 9.59373V9.86091H34.7656ZM34.2172 8.96091C34.1891 8.82029 34.1328 8.67966 34.0906 8.53904L34.5406 8.35623C34.6109 8.51091 34.6531 8.67966 34.6953 8.84841L34.2172 8.96091V8.96091ZM33.8797 8.14529C33.8094 8.01873 33.7109 7.89216 33.6265 7.77966L33.9922 7.47029C34.1047 7.59685 34.2031 7.73748 34.2875 7.89216L33.8797 8.14529V8.14529ZM33.3172 7.47029C33.2047 7.37185 33.0922 7.28748 32.9656 7.2031L33.2187 6.79529C33.3594 6.87966 33.5 6.99216 33.6406 7.10466L33.3172 7.47029V7.47029ZM32.5719 7.00623C32.4312 6.94998 32.2906 6.90779 32.15 6.8656L32.2625 6.40154C32.4312 6.44373 32.6 6.49998 32.7547 6.57029L32.5719 7.00623ZM31.7141 6.79529C31.6437 6.79529 31.5594 6.78123 31.489 6.78123H31.25V6.3031H31.475C31.5594 6.3031 31.6578 6.3031 31.7422 6.31716L31.7141 6.79529V6.79529ZM30.7719 6.78123H30.2937V6.3031H30.7719V6.78123V6.78123ZM29.8015 6.78123H29.3234V6.3031H29.8015V6.78123V6.78123ZM28.8453 6.78123H28.3672V6.3031H28.8453V6.78123V6.78123Z" fill="#1296DB"/>
<path d="M28.5078 8.56718L26.5391 6.54218L28.5078 4.6578L28.8453 5.00936L27.2141 6.55624L28.8453 8.24374L28.5078 8.56718ZM17.1031 37.3109L16.7656 36.9734L18.3969 35.2859L16.7656 33.7531L17.1031 33.4016L19.0719 35.2719L17.1031 37.3109ZM11.5766 29.9703V25.7234H5.27656C3.4625 25.7234 2 24.2469 2 22.4469V5.45936C2 3.6453 3.4625 2.1828 5.27656 2.1828H22.2641C24.0781 2.1828 25.5406 3.65936 25.5406 5.45936V20.4922H23.4594C21.9125 20.4922 20.6609 21.7437 20.6609 23.2906V25.7234H15.0359L11.5766 29.9703ZM5.27656 2.66093C3.72969 2.66093 2.47813 3.91249 2.47813 5.45936V22.4469C2.47813 23.9937 3.72969 25.2453 5.27656 25.2453H12.0547V28.6203L14.8109 25.2453H20.1828V23.2906C20.1828 21.4765 21.6453 20.0141 23.4594 20.0141H25.0625V5.45936C25.0625 3.91249 23.8109 2.66093 22.2641 2.66093H5.27656V2.66093Z" fill="#1296DB"/>
<path d="M12.6313 24.5563V27.0313L14.825 24.3172L12.6313 24.5563Z" fill="#1296DB"/>
<path d="M34.9203 37.8172H23.2625C21.5609 37.8172 20.1828 36.4391 20.1828 34.7375V23.0938C20.1828 21.3922 21.5609 20.0141 23.2625 20.0141H27.7625V16.8219L30.364 20.0141H34.9203C36.6219 20.0141 38 21.3922 38 23.0938V34.7516C38 36.4391 36.6219 37.8172 34.9203 37.8172V37.8172ZM23.2625 20.4922C21.8281 20.4922 20.6609 21.6594 20.6609 23.0938V34.7516C20.6609 36.186 21.8281 37.3531 23.2625 37.3531H34.9203C36.3547 37.3531 37.5219 36.186 37.5219 34.7516V23.0938C37.5219 21.6594 36.3547 20.4922 34.9203 20.4922H30.1391L28.2406 18.1719V20.4922H23.2625Z" fill="#1296DB"/>
</svg>
