<svg width="16" height="16" viewBox="0 0 16 16" fill="none" xmlns="http://www.w3.org/2000/svg">
<path d="M8.58 10.0467L6.88667 8.37334L6.90667 8.35334C8.06667 7.06001 8.89334 5.57334 9.38 4.00001H11.3333V2.66668H6.66667V1.33334H5.33334V2.66668H0.666672V3.99334H8.11334C7.66667 5.28001 6.96 6.50001 6 7.56668C5.38 6.88001 4.86667 6.12668 4.46 5.33334H3.12667C3.61334 6.42001 4.28 7.44668 5.11334 8.37334L1.72 11.72L2.66667 12.6667L6 9.33334L8.07334 11.4067L8.58 10.0467ZM12.3333 6.66668H11L8 14.6667H9.33334L10.08 12.6667H13.2467L14 14.6667H15.3333L12.3333 6.66668ZM10.5867 11.3333L11.6667 8.44668L12.7467 11.3333H10.5867V11.3333Z" fill="#1296DB"/>
</svg>
